# xmcd CD database file
#
# Track frame offsets:
#	150
#	16006
#	32881
#	53818
#	72737
#	94115
#	121364
#	145093
#	161247
#	174345
#	194038
#	209872
#	229012
#	242104
#	258706
#
# Disc length: 3684 seconds
#
# Revision: 0
# Processed by: cddbd v1.5.1PL2 Copyright (c) Steve Scherf et al.
# Submitted via: CDex 1.51
#
DISCID=e40e620f
DTITLE=Various Artist - Little Black Dress
DYEAR=1900
DGENRE=Jazz
TTITLE0=Guys And Dolls
TTITLE1=Love Walked In
TTITLE2=My Favourite Things
TTITLE3=Ain't Misbehavin'
TTITLE4=Witchcraft
TTITLE5=Moon River
TTITLE6=La Vie En Rose
TTITLE7=You'd Be So Nice To Come Home To
TTITLE8=Call Me Irresponsible
TTITLE9=All OF Me
TTITLE10=Perhaps, Perhaps, Perhaps
TTITLE11=Just Squeeze Me
TTITLE12=Strictly Confidential
TTITLE13=Make Someone Happy
TTITLE14=You Stepped Out Of A Dream
EXTD=
EXTT0=
EXTT1=
EXTT2=
EXTT3=
EXTT4=
EXTT5=
EXTT6=
EXTT7=
EXTT8=
EXTT9=
EXTT10=
EXTT11=
EXTT12=
EXTT13=
EXTT14=
PLAYORDER=
